<svg xmlns="http://www.w3.org/2000/svg" id="e79de2b1-31b6-4478-8ebd-7f8f2a328c04" data-name="Layer 1" viewBox="0 0 1035.13 258.74"><rect width="1035.13" height="258.74" style="fill:#31e7ff"/><path d="M653.95,188.31H482.23c-60.08,0-108.78,31.5-108.78,70.35v.71H762.73v-.71C762.74,219.81,714.03,188.31,653.95,188.31Z" transform="translate(0.13 -0.63)" style="fill:#39b54a"/><path d="M395.92,214.09H332.89c-93.72,0-110.97,45.28-110.97,45.28H506.88S489.63,214.09,395.92,214.09Z" transform="translate(0.13 -0.63)" style="fill:#8dc63f"/><path d="M1035,207H791.49c-52.15,0-111.31,17.57-176.08,51.85l419.58.52v-.52C1035,230.21,1035,207,1035,207Z" transform="translate(0.13 -0.63)" style="fill:#8dc63f"/><path d="M872.54,165.03l-2.2-10.36a13.81356,13.81356,0,0,0-13.5-10.93H767.1a13.80194,13.80194,0,0,0-13.8,13.8v62.95H899.83V198.6a19.7283,19.7283,0,0,0-13.73-18.8l-.25-.08A19.7424,19.7424,0,0,1,872.54,165.03Z" transform="translate(0.13 -0.63)" style="fill:#eff"/><rect width="9.1" height="67.07" x="845.21" y="148.64" style="fill:#d1edf2"/><rect width="9.1" height="67.07" x="836.11" y="148.64" style="fill:#def4f9"/><path d="M871.6,180.85H859.14a.80662.80662,0,0,1-.81-.81V152.95a.80656.80656,0,0,1,1.54-.34l12.46,27.08A.81937.81937,0,0,1,871.6,180.85Z" transform="translate(0.13 -0.63)" style="fill:#bdf2f0"/><path d="M871.6,181.54H859.14a1.498,1.498,0,0,1-1.5-1.5V152.95a1.48769,1.48769,0,0,1,1.51-1.5,1.467,1.467,0,0,1,1.35.87l12.46,27.09a1.50756,1.50756,0,0,1-1.36,2.13ZM859.24,152.9l-.22.05v27.09l12.57.12a.1388.1388,0,0,0,.1-.05Z" transform="translate(0.13 -0.63)" style="fill:#27aae1"/><path d="M840.21,182.8h-.04a2.12108,2.12108,0,0,1-2.12-2.12V154.26a2.12109,2.12109,0,0,1,2.12-2.12h.04a2.12109,2.12109,0,0,1,2.12,2.12v26.42A2.11471,2.11471,0,0,1,840.21,182.8Z" transform="translate(0.13 -0.63)" style="fill:#bdf2f0"/><path d="M840.21,183.49h-.04a2.81247,2.81247,0,0,1-2.81-2.81V154.26a2.83006,2.83006,0,0,1,5.66,0v26.42A2.80607,2.80607,0,0,1,840.21,183.49Zm0-30.65a1.43881,1.43881,0,0,0-1.47,1.43v26.42a1.42971,1.42971,0,0,0,1.43,1.43h.04a1.42971,1.42971,0,0,0,1.43-1.43V154.27A1.4297,1.4297,0,0,0,840.21,152.84Z" transform="translate(0.13 -0.63)" style="fill:#27aae1"/><path d="M849.65,182.8h-.04a2.12108,2.12108,0,0,1-2.12-2.12V154.26a2.12109,2.12109,0,0,1,2.12-2.12h.04a2.12109,2.12109,0,0,1,2.12,2.12v26.42A2.1147,2.1147,0,0,1,849.65,182.8Z" transform="translate(0.13 -0.63)" style="fill:#bdf2f0"/><path d="M849.65,183.49h-.04a2.81247,2.81247,0,0,1-2.81-2.81V154.26a2.83006,2.83006,0,0,1,5.66,0v26.42A2.80607,2.80607,0,0,1,849.65,183.49Zm0-30.65a1.43881,1.43881,0,0,0-1.47,1.43v26.42a1.42762,1.42762,0,0,0,1.42,1.43h.04a1.42971,1.42971,0,0,0,1.43-1.43V154.27A1.41488,1.41488,0,0,0,849.65,152.84Z" transform="translate(0.13 -0.63)" style="fill:#27aae1"/><path d="M895.33,216.34c0,9.02-5.93,14.52-14.52,14.52a14.52,14.52,0,1,1,14.52-14.52Z" transform="translate(0.13 -0.63)" style="fill:#75341e"/><path d="M886.69,216.34a5.88,5.88,0,1,1-5.88-5.88A5.87673,5.87673,0,0,1,886.69,216.34Z" transform="translate(0.13 -0.63)" style="fill:#d6fefe"/><path d="M799.84,216.34a14.52,14.52,0,1,1-14.52-14.52A14.51895,14.51895,0,0,1,799.84,216.34Z" transform="translate(0.13 -0.63)" style="fill:#75341e"/><path d="M791.19,216.34a5.88,5.88,0,1,1-5.88-5.88A5.87673,5.87673,0,0,1,791.19,216.34Z" transform="translate(0.13 -0.63)" style="fill:#d6fefe"/><polygon points="784.87 164.89 784.78 164.89 779.56 164.89 779.48 164.89 779.48 165.04 772.8 176.77 766.03 164.89 760.73 164.89 760.73 189.55 766.03 189.55 766.03 174.2 770.15 181.42 770.12 181.48 770.18 181.48 775.42 181.48 775.49 181.48 775.45 181.42 779.48 174.35 779.48 189.55 784.78 189.55 784.78 165.04 784.87 164.89" style="fill:#39d0ff"/><rect width="5.3" height="24.66" x="788.99" y="164.89" style="fill:#39d0ff"/><polygon points="812.74 184.25 804.31 184.25 804.31 164.89 799.01 164.89 799.01 189.55 804.31 189.55 804.31 189.55 812.74 189.55 812.74 184.25" style="fill:#39d0ff"/><rect width="5.3" height="24.66" x="814.6" y="164.89" style="fill:#39d0ff"/><polygon points="832.67 189.55 823.08 175.65 831.49 164.89 825.49 164.89 819.9 172.04 819.9 164.89 814.6 164.89 814.6 189.55 819.9 189.55 819.9 180.59 825.98 189.55 832.67 189.55" style="fill:#39d0ff"/><path d="M814.96,174.45l10.89,15.33Z" transform="translate(0.13 -0.63)" style="fill:#39d0ff"/><path d="M800.92,220.75h.07a3.18551,3.18551,0,0,0,2.89-3.92l-3.17-13.81a4.8776,4.8776,0,0,0-4.75-3.78H772.35a3.17787,3.17787,0,0,0-3.1,2.45l-3.61,15.14a3.18544,3.18544,0,0,0,2.89,3.92l.28.02a3.1871,3.1871,0,0,0,3.33-2.52l.56-2.63a11.55719,11.55719,0,0,1,11.3-9.14h1.89a11.56168,11.56168,0,0,1,11.45,9.97l.21,1.55A3.185,3.185,0,0,0,800.92,220.75Z" transform="translate(0.13 -0.63)" style="fill:#def4f9"/><path d="M896.98,220.75h.07a3.18551,3.18551,0,0,0,2.89-3.92l-3.18-13.81a4.8776,4.8776,0,0,0-4.75-3.78H868.4a3.17785,3.17785,0,0,0-3.1,2.45l-3.61,15.14a3.18546,3.18546,0,0,0,2.89,3.92l.28.02a3.20483,3.20483,0,0,0,3.34-2.52l.56-2.63a11.55719,11.55719,0,0,1,11.3-9.14h1.89a11.56169,11.56169,0,0,1,11.45,9.97l.21,1.55A3.17853,3.17853,0,0,0,896.98,220.75Z" transform="translate(0.13 -0.63)" style="fill:#def4f9"/><path d="M826.82,156.54H767.79a2.2534,2.2534,0,0,1-2.25-2.25v-.05a2.247,2.247,0,0,1,2.25-2.25h59.03a2.25339,2.25339,0,0,1,2.25,2.25v.05A2.24708,2.24708,0,0,1,826.82,156.54Z" transform="translate(0.13 -0.63)" style="fill:#def4f9"/><path d="M303.84,223.41a19.28848,19.28848,0,0,1-1.11,2.92c-.44.71-.73,2.26,1.18,1.09C305.82,226.26,303.84,223.41,303.84,223.41Z" transform="translate(0.13 -0.63)" style="fill:#d16637"/><path d="M291.33,158.97s5.11,34.99,3.23,41.56c-1.88,6.56,3.34,6.99,5.7,14.34a68.41983,68.41983,0,0,1,2.83,11.22l3.5,2.65,2.85,1.12h4.01s-1.08-1.14-3.83-8.21c-1.85-4.76-5.49-17.34-1.51-27.85,3.97-10.51.83-14.03.83-14.03Z" transform="translate(0.13 -0.63)" style="fill:#effaff"/><path d="M305.66,226.75s4.91-1.64,6.35.25a9.98983,9.98983,0,0,0,3.46,2.86c.93.62,1.96,1.06-1.96,1.36C309.57,231.51,304.22,231.76,305.66,226.75Z" transform="translate(0.13 -0.63)" style="fill:#d16637"/><path d="M430.88,199.07c.57-1.58-.2-3.17-1.51-4.6a83.50675,83.50675,0,0,1-11.12-15.12c-2.27,1.43-3.67,4.07-4.62,6.38-1.61,3.87-7.01,9.17-10.56,4.32-1.84-2.52-2.94-4.5-6.58-4.27-1.66.1-7.23,1.65-8.46-.04-1.05-1.45,1.83-6.48,2.79-7.54,2.2-2.44,3.99-3.67,3.6-7.29-.32-2.99-2.02-5.76-2.9-8.6-1.27-4.12-.45-5.55,3.4-6.99,1.43-.53,2.47-1.37,3.82-1.95,1.44-.61,3.19.13,4.42-1.29a15.21414,15.21414,0,0,0,.87-2.22c-2.63-4.47-5.08-7.57-6.93-7.86-11.53-1.77-34.31-8.64-34.31-8.64s-13.64-.8-29.33-1.34a6.54734,6.54734,0,0,1-2.09,4.48c-2.36,2.17-4.67,1.44-7.56,1.75-4.28.47-8.22,5.41-8.74,9.65-.51,4.18.81,8.2-2.24,11.78-2.86,3.35-7.28,3.44-11.12,1.94-1.84-.72-3.68-1.84-3.47-4.08.13-1.33,1.43-2.16,1.77-3.45,1.07-4.08-3.54-6.08-5.78-8.59-3.17-3.56-3.33-7.56-1.01-11.51a9.67938,9.67938,0,0,1,1.84-2.07,27.67634,27.67634,0,0,0-6.77,1.05c-11.2,4.32-3.34,32.61-3.34,32.61s29.07,18.86,40.85,24.16c11.79,5.3,33.84-5.11,33.84-5.11s7.41,9.63,16.25,11.2,18.46-2.01,18.46-2.01,12.77,7.51,11.79,10.26,2.55,6.87,6.48,10.8,9.43,8.25,11,11.79a2.74411,2.74411,0,0,0,2.56,1.55,8.33934,8.33934,0,0,1-.04-2.94c.08-.84.5.84,1.84.57s-.33-.66.84-2.25c.62-.84,1.9-.79,2.98-.56C430.99,216.42,429.55,202.76,430.88,199.07Zm-67.8-31.97c1.56,3.29,3.69,6.7-1.22,8.26-6.52,2.07-12.15-4.83-18.46-3.02-3.21.92-4.27,5.03-7.41,5.34-4.03.41-4.82-3.83-2.02-6.04,2.83-2.23,6.58-3.14,6.18-7.47-.3-3.29-2.42-5.32-4.22-7.83-1.31-1.83-3.19-5.99-1.52-8.27.48-.66,2.5-1.62,3.26-2.3.95-.84,2.97-2.23,3.36-3.53.07-.22.14-.38.19-.5.01-.2.03-.41.05-.62.2-2.19.91-4.6,3.38-4.07,2.28.49,3.81,3.86,6.17,4.64,3.71,1.21,3.95-2.97,6.95-2.95,3.81.03.65,3.34,1.31,5.27.49,1.46,2.97,2.79,4.18,3.54,1.17.72,3.71,1.05,4.59,1.79,2.51,2.1-1.58,5.99-3.22,7.69C361.5,160.29,361.03,162.79,363.08,167.1Z" transform="translate(0.13 -0.63)" style="fill:#effaff"/><path d="M398.74,153.36c-1.35.57-2.39,1.41-3.82,1.95-3.85,1.44-4.67,2.87-3.4,6.99.87,2.84,2.58,5.61,2.9,8.6.38,3.62-1.4,4.86-3.6,7.29-.96,1.06-3.84,6.09-2.79,7.54,1.23,1.7,6.8.15,8.46.04,3.63-.23,4.74,1.75,6.58,4.27,3.54,4.85,8.95-.45,10.56-4.32.96-2.31,2.35-4.95,4.62-6.38a65.97352,65.97352,0,0,1-3.41-6.9,204.89389,204.89389,0,0,0-10.81-22.6,14.256,14.256,0,0,1-.87,2.22C401.93,153.49,400.19,152.75,398.74,153.36Z" transform="translate(0.13 -0.63)" style="fill:#333d46"/><path d="M293.21,133.99c-2.32,3.95-2.16,7.95,1.01,11.51,2.24,2.51,6.85,4.51,5.78,8.59-.34,1.28-1.64,2.12-1.77,3.45-.21,2.24,1.63,3.36,3.47,4.08,3.85,1.5,8.26,1.41,11.12-1.94,3.05-3.58,1.73-7.59,2.24-11.78.52-4.24,4.45-9.19,8.74-9.65,2.89-.31,5.2.42,7.56-1.75a6.54721,6.54721,0,0,0,2.09-4.48c-13.89-.48-29.35-.76-38.4-.1A9.99791,9.99791,0,0,0,293.21,133.99Z" transform="translate(0.13 -0.63)" style="fill:#333d46"/><path d="M367.86,149.34c-.88-.74-3.42-1.06-4.59-1.79-1.21-.75-3.69-2.08-4.18-3.54-.66-1.94,2.5-5.25-1.31-5.27-3-.02-3.24,4.16-6.95,2.95-2.36-.77-3.89-4.15-6.17-4.64-2.47-.53-3.18,1.89-3.38,4.07.14.22.08.34-.05.62-.01.28-.03.55-.03.8-.05.34.15-.23.26-.29-.1.06-.3.63-.26.29,0-.25.01-.52.03-.8a2.948,2.948,0,0,0-.19.5c-.39,1.3-2.41,2.69-3.36,3.53-.76.68-2.78,1.64-3.26,2.3-1.67,2.27.2,6.43,1.52,8.27,1.8,2.51,3.91,4.54,4.22,7.83.4,4.33-3.35,5.24-6.18,7.47-2.8,2.2-2.01,6.44,2.02,6.04,3.14-.32,4.2-4.42,7.41-5.34,6.31-1.81,11.94,5.09,18.46,3.02,4.91-1.56,2.78-4.97,1.22-8.26-2.04-4.31-1.58-6.81,1.56-10.07C366.28,155.33,370.37,151.45,367.86,149.34Z" transform="translate(0.13 -0.63)" style="fill:#333d46"/><path d="M322.26,184.42l-34.37-22.59s-6.88,23.96.2,29.66a26.15515,26.15515,0,0,0,12.22,4.99c-.2,2.02-.14,4.3.85,4.84.88.47,2.16-2.19,2.33-4.58a21.048,21.048,0,0,0,6.18-.81c-.18,2.53.1,5.68,1.23,5.53,1.17-.16,1.78-4.19,1.83-5.14a6.19839,6.19839,0,0,0-.17-1.5C316.34,192.99,319.78,189.73,322.26,184.42Z" transform="translate(0.13 -0.63)" style="fill:#ffc9a9"/><path d="M358.69,224.25a19.70755,19.70755,0,0,1-1.11,2.93c-.44.71-.72,2.26,1.18,1.09C360.67,227.1,358.69,224.25,358.69,224.25Z" transform="translate(0.13 -0.63)" style="fill:#effaff"/><path d="M283.69,224.28a19.28815,19.28815,0,0,1-1.11,2.92c-.44.71-.72,2.26,1.18,1.09C285.68,227.13,283.69,224.28,283.69,224.28Z" transform="translate(0.13 -0.63)" style="fill:#d16637"/><path d="M284.71,158.97s-1.28,35.34-4.31,41.46,2.03,7.48,3.02,15.13-.17,10.07-.17,10.07l3.91,4.72,2.38-.49h6.48s-.22.41-4.6-5.94c-2.9-4.2-4.03-19.35,3.53-27.67,10.47-11.53,12.54-28.43,12.54-28.43Z" transform="translate(0.13 -0.63)" style="fill:#effaff"/><path d="M367.22,170.79s-8.24,25.81-8.43,33.47c-.2,7.66,0,21.41,0,21.41a16.07811,16.07811,0,0,0,2.51,3.64c1.1,1.25,4.57.98,7.13.58,1.04-.17.03.51-.88-.03l-.51-3.12a5.52483,5.52483,0,0,1-2.66-5.47l1.11-8.37a29.768,29.768,0,0,1,5.87-14.16c2.79-3.67,5.66-8.61,4.92-12.75C374.9,178.33,367.22,170.79,367.22,170.79Z" transform="translate(0.13 -0.63)" style="fill:#effaff"/><path d="M367.22,170.79s1.31,29.07,2.75,36.59,4.56,20.92,4.56,20.92a19.50581,19.50581,0,0,1,3.23,2.07c1.34.99,4.67.94,7.09,0,.99-.38-4.33-1.31-3.34-3.24l-3.52-11.67c-1.61-5.46-1.77-9.87-1.15-10.41,1.68-1.45,4.99-28.17,3.38-32.05C377.24,165.81,367.22,170.79,367.22,170.79Z" transform="translate(0.13 -0.63)" style="fill:#effaff"/><path d="M284.75,227.44s7.41-2.33,8.85-.44a9.901,9.901,0,0,0,3.46,2.86c.93.62,1.96,1.06-1.96,1.36C291.16,231.51,283.31,232.45,284.75,227.44Z" transform="translate(0.13 -0.63)" style="fill:#d16637"/><path d="M359.72,227.41s6.42-2.33,7.68-.44a8.994,8.994,0,0,0,3,2.86c.81.62,1.7,1.06-1.7,1.36C365.28,231.48,358.47,232.41,359.72,227.41Z" transform="translate(0.13 -0.63)" style="fill:#effaff"/><path d="M358.3,224.69a19.70832,19.70832,0,0,1-1.11,2.93c-.44.71-.73,2.26,1.18,1.09C360.28,227.53,358.3,224.69,358.3,224.69Z" transform="translate(0.13 -0.63)" style="fill:#d16637"/><path d="M373.52,224.69a19.70717,19.70717,0,0,1-1.11,2.93c-.44.71-.72,2.26,1.18,1.09C375.5,227.53,373.52,224.69,373.52,224.69Z" transform="translate(0.13 -0.63)" style="fill:#d16637"/><path d="M359.38,227.41s7.41-2.33,8.85-.44a9.901,9.901,0,0,0,3.46,2.86c.93.62,1.96,1.06-1.96,1.36C365.79,231.48,357.94,232.41,359.38,227.41Z" transform="translate(0.13 -0.63)" style="fill:#d16637"/><path d="M374.44,226.55s5.44-1.78,7.04.27a11.2102,11.2102,0,0,0,3.83,3.11c1.03.68,2.18,1.16-2.17,1.48C378.77,231.72,372.85,231.99,374.44,226.55Z" transform="translate(0.13 -0.63)" style="fill:#d16637"/><path d="M422.78,199.07s.26-5.48-.67-8.04l-.26-.71a.67212.67212,0,0,0-1.07-.28c-1.16,1.01-3.27,3.02-3.28,4.2a8.357,8.357,0,0,0,2.77,6.23Z" transform="translate(0.13 -0.63)" style="fill:#333d46"/><path d="M425.71,198.77s-2.4,3.72,1.76,4.59c5.82,1.22,10.04-2.4,12.03-4.66.32-.36-.13-.96-.53-.7-2.41,1.58-4.63,1.72-9.07.6C427.95,198.11,429.06,196.33,425.71,198.77Z" transform="translate(0.13 -0.63)" style="fill:#333d46"/><path d="M432,224.76l-4.58,3.4a17.435,17.435,0,0,0,4.83-1.51S432.15,225.93,432,224.76Z" transform="translate(0.13 -0.63)" style="fill:#e3a387"/><path d="M431.97,224.5c-.05-.43-.12-.94-.18-1.47-1.08-.23-2.36-.28-2.98.56-1.17,1.59.5,1.98-.84,2.25-1.34.26-1.76-1.41-1.84-.57a8.33936,8.33936,0,0,0,.04,2.94,6.69263,6.69263,0,0,0,1.26-.04l4.58-3.4A2.50942,2.50942,0,0,1,431.97,224.5Z" transform="translate(0.13 -0.63)" style="fill:#e3a387"/><path d="M277.78,190.07l6.16-46.33-.52-5.17s-4.4,18.84-5.03,25.24c-.41,4.19-.89,18.3-1.14,26.08-.03,0-.06-.02-.1-.02-1.26,0-2.29,2.06-2.29,4.6s2.22,7.59,2.22,7.59,2.35-5.05,2.35-7.59C279.45,192.37,278.74,190.61,277.78,190.07Z" transform="translate(0.13 -0.63)" style="fill:#effaff"/><path d="M427.13,200.3c-2.49-.27-5.17-2.89-7.38-1.35-1,.7-.55,2.08-1.3,2.97-.88,1.05-2.4.23-2.71,2.39-.4,2.79,2.24,2.49,3.28,4.08,1.66,2.52-.49,4.9.39,7.34.58,1.61,2.54,1.68,3.39,2.71.61.74.92,3.16,1.72,3.64,3.48,2.12,2.62-3.97,2.62-5.97,0-2.8-.8-5.7-.69-8.38.09-2.1,2.09-5.47,1.02-7.11Z" transform="translate(0.13 -0.63)" style="fill:#333d46"/><path d="M427.78,209.01a1.639,1.639,0,0,1-.26.9,1.811,1.811,0,0,1-.62.65,2.58317,2.58317,0,0,1-1.03.37l-.61-.06a1.05922,1.05922,0,0,1-.54-.21c-.32-.22-.61-.41-.69-.71a1.6643,1.6643,0,0,1-.16-.93,8.3941,8.3941,0,0,1,.85.01c.19.05.41-.06.55-.05.07.02.15-.02.23-.03a1.63686,1.63686,0,0,1,.22-.02,4.85446,4.85446,0,0,1,.55-.01c.21-.01.43.01.65.02C427.35,208.96,427.78,209.01,427.78,209.01Z" transform="translate(0.13 -0.63)" style="fill:#003b49"/><path d="M183.4,122.95h-.22a10.74032,10.74032,0,0,0-4.02.78,10.289,10.289,0,0,0-9.23-5.74h-.21a10.29754,10.29754,0,0,0-9.59,6.55,8.90352,8.90352,0,0,0-16.64,6.34,6.31263,6.31263,0,0,0-.22.61,5.7738,5.7738,0,0,0-2.28-.47h-.12a5.76149,5.76149,0,0,0-5.76,5.76v.09a3.1496,3.1496,0,0,0,3.15,3.15h50.06a5.9834,5.9834,0,0,0,5.98-5.98v-.17A10.89777,10.89777,0,0,0,183.4,122.95Z" transform="translate(0.13 -0.63)" style="fill:#eff"/><path d="M430.14,64.86h-.32a15.7333,15.7333,0,0,0-5.84,1.13,14.93125,14.93125,0,0,0-13.39-8.33h-.3a14.95548,14.95548,0,0,0-13.92,9.5,12.91618,12.91618,0,0,0-24.96,4.67,12.75846,12.75846,0,0,0,.83,4.51c-.1.3-.24.58-.32.88a8.26649,8.26649,0,0,0-3.31-.68h-.17a8.35628,8.35628,0,0,0-8.36,8.36v.13a4.56863,4.56863,0,0,0,4.57,4.57h72.63a8.6849,8.6849,0,0,0,8.68-8.68v-.25A15.82055,15.82055,0,0,0,430.14,64.86Z" transform="translate(0.13 -0.63)" style="fill:#eff"/><path d="M890.53,84.05h-.28a14.00011,14.00011,0,0,0-5.54,1.14A24.93562,24.93562,0,0,0,860.7,66.97h-.5a24.76528,24.76528,0,0,0-15.32,5.29,25.076,25.076,0,0,0-24.52-19.88h-.51A25.05874,25.05874,0,0,0,797.4,66.34a26.34124,26.34124,0,0,0-9.79-1.9h-.53a26.537,26.537,0,0,0-26.54,26.54v.42a14.5595,14.5595,0,0,0,14.55,14.56h121.8a7.67131,7.67131,0,0,0,7.67-7.67v-.22A14.03232,14.03232,0,0,0,890.53,84.05Z" transform="translate(0.13 -0.63)" style="fill:#eff"/><polygon points="537.58 6.07 529.23 179.54 544.8 179.54 544.8 6.07 537.58 6.07" style="fill:#ea683b"/><polygon points="552.02 6.07 544.8 6.07 544.8 179.54 560.37 179.54 552.02 6.07" style="fill:#d16637"/><rect width="132.85" height="92.52" x="510.1" y="111.58" style="fill:#ffef8f"/><rect width="59.92" height="12.82" x="514.86" y="122.81" style="fill:#bdf2f0"/><path d="M575.82,137.43H513.56V122.27h62.26Zm-59.93-2.34h57.58V124.61H515.89Z" transform="translate(0.13 -0.63)" style="fill:#27aae1"/><rect width="59.92" height="12.82" x="514.86" y="138.72" style="fill:#bdf2f0"/><path d="M575.82,153.34H513.56V138.18h62.26ZM515.89,151h57.58V140.51H515.89Z" transform="translate(0.13 -0.63)" style="fill:#27aae1"/><rect width="59.92" height="12.82" x="514.86" y="154.63" style="fill:#bdf2f0"/><path d="M575.82,169.25H513.56V154.09h62.26Zm-59.93-2.34h57.58V156.43H515.89Z" transform="translate(0.13 -0.63)" style="fill:#27aae1"/><rect width="59.92" height="12.82" x="514.86" y="170.54" style="fill:#bdf2f0"/><path d="M575.82,185.16H513.56V170h62.26Zm-59.93-2.34h57.58V172.34H515.89Z" transform="translate(0.13 -0.63)" style="fill:#27aae1"/><rect width="59.92" height="12.82" x="514.86" y="186.45" style="fill:#bdf2f0"/><path d="M575.82,201.07H513.56V185.91h62.26Zm-59.93-2.34h57.58V188.24H515.89Z" transform="translate(0.13 -0.63)" style="fill:#27aae1"/><polygon points="651.5 204.1 580.16 204.1 580.16 85.98 651.5 41.52 651.5 204.1" style="fill:#3897ba"/><polygon points="591.85 192.4 591.85 92.47 639.8 62.59 639.8 192.4 591.85 192.4" style="fill:#2c8ea8"/><rect width="3.76" height="48.26" x="521.09" y="155.84" style="fill:#52d6ff"/><rect width="3.75" height="48.26" x="524.84" y="155.84" style="fill:#00aeef"/><path d="M524.71,156.47h-3.76V130.08a18.93988,18.93988,0,0,1,.08-2.5,10.97324,10.97324,0,0,1,.54-2.97l.46-1.42.68-1.3a13.72239,13.72239,0,0,1,8.04-6.49,15.35989,15.35989,0,0,1,4.12-.64h4.45v3.76h-2.07a17.913,17.913,0,0,0-5.41.47,9.96033,9.96033,0,0,0-5.85,4.72c-1.51,2.49-1.3,5.65-1.3,8.63C524.71,144.4,524.71,156.47,524.71,156.47Z" transform="translate(0.13 -0.63)" style="fill:#52d6ff"/><path d="M528.46,156.47h-3.75V132.34c0-2.98-.21-6.15,1.3-8.63a9.96033,9.96033,0,0,1,5.85-4.72,17.93534,17.93534,0,0,1,5.41-.47h2.07v3.76h-4.45a7.84321,7.84321,0,0,0-1.95.31,6.201,6.201,0,0,0-3.65,2.95l-.34.58-.18.65a4.36168,4.36168,0,0,0-.25,1.35,12.55831,12.55831,0,0,0-.06,1.97v2.26C528.46,144.4,528.46,156.47,528.46,156.47Z" transform="translate(0.13 -0.63)" style="fill:#00aeef"/><path d="M539.35,118.5v-3.76h25.26l.71-.09a4.19765,4.19765,0,0,0,1.36-.3,6.608,6.608,0,0,0,2.31-1.39,5.98965,5.98965,0,0,0,1.89-4.32c.02-4.46.03-7.43.03-7.43h3.75s-.01,3.02-.03,7.54a9.842,9.842,0,0,1-3.03,6.9,10.84126,10.84126,0,0,1-8.12,2.84C551.41,118.5,539.35,118.5,539.35,118.5Z" transform="translate(0.13 -0.63)" style="fill:#52d6ff"/><path d="M539.35,122.26V118.5h24.13a10.88085,10.88085,0,0,0,8.12-2.84,9.75876,9.75876,0,0,0,3.03-6.9c.02-4.52.03-7.54.03-7.54h3.76s-.01,3.06-.03,7.65a13.55653,13.55653,0,0,1-4.17,9.48,13.96158,13.96158,0,0,1-5.07,3.09,10.96993,10.96993,0,0,1-3,.67l-1.54.14h-1.13C551.41,122.26,539.35,122.26,539.35,122.26Z" transform="translate(0.13 -0.63)" style="fill:#00aeef"/><path d="M574.66,101.22h-3.75V66.15l.01-1.04c.04-.46.08-.9.12-1.35.05-.44.1-.88.15-1.31q.18-.63.36-1.23a9.3625,9.3625,0,0,1,.9-2.25,14.75741,14.75741,0,0,1,2.44-3.45,17.18424,17.18424,0,0,1,2.56-2.02c.8-.43,1.43-.77,1.85-1,.46-.16.7-.24.7-.24l1.28,3.53-.51.17c-.31.17-.77.42-1.35.73a12.83118,12.83118,0,0,0-1.86,1.47,10.93679,10.93679,0,0,0-1.77,2.51c-1.12,2.01-1.19,4.73-1.12,7.54v8.86C574.66,89.16,574.66,101.22,574.66,101.22Z" transform="translate(0.13 -0.63)" style="fill:#52d6ff"/><path d="M578.42,101.22h-3.76V68.23c-.06-2.81,0-5.53,1.12-7.54a11.24946,11.24946,0,0,1,1.77-2.51,14.203,14.203,0,0,1,1.86-1.47c.58-.31,1.04-.56,1.35-.73.34-.11.51-.17.51-.17l1.28,3.53s-.11.03-.32.09c-.19.12-.47.28-.84.47a10.51369,10.51369,0,0,0-1.17.91,7.83821,7.83821,0,0,0-1.1,1.58,2.86573,2.86573,0,0,0-.4,1.02l-.19.55-.04.6-.08.61-.01.98V77.09C578.42,89.16,578.42,101.22,578.42,101.22Z" transform="translate(0.13 -0.63)" style="fill:#00aeef"/><path d="M581.28,55.81,580,52.28a13.61462,13.61462,0,0,1,2.76-.68,46.62611,46.62611,0,0,1,5.99-.18h7.73c1.42,0,2.9.01,4.39.01a21.009,21.009,0,0,1,3.05.38,13.31354,13.31354,0,0,1,2.91,1.06,13.89013,13.89013,0,0,1,7.34,9.21,19.9171,19.9171,0,0,1,.36,2.83c.05.85.01,1.39.02,2.08V78.18h-3.76V66.99a18.19934,18.19934,0,0,0-.29-4.05,10.17064,10.17064,0,0,0-5.34-6.69c-2.73-1.48-5.91-.97-8.69-1.06h-7.73a45.66423,45.66423,0,0,0-5.46.14A10.28268,10.28268,0,0,0,581.28,55.81Z" transform="translate(0.13 -0.63)" style="fill:#52d6ff"/><path d="M582.57,59.34l-1.28-3.53a9.83671,9.83671,0,0,1,2.01-.5,45.66423,45.66423,0,0,1,5.46-.14h7.73c2.79.09,5.96-.41,8.69,1.06a10.1707,10.1707,0,0,1,5.34,6.69,18.81227,18.81227,0,0,1,.29,4.05V78.16h-3.76V66.97c-.01-.61.02-1.4-.02-1.91-.09-.42-.05-.87-.17-1.29a6.4421,6.4421,0,0,0-3.34-4.18,6.846,6.846,0,0,0-2.7-.67c-1.47,0-2.93,0-4.33-.01h-7.73a43.664,43.664,0,0,0-4.93.1A6.66056,6.66056,0,0,0,582.57,59.34Z" transform="translate(0.13 -0.63)" style="fill:#00aeef"/><path d="M610.8,78.18h3.76v43.81a4.9236,4.9236,0,0,0,.06,1.02c.02.25.04.48.06.68.22.79.35,1.24.35,1.24l-3.48,1.42c-1.1.16-.66-12-.75-24.04Z" transform="translate(0.13 -0.63)" style="fill:#52d6ff"/><path d="M607.04,78.18h3.76v24.13c.09,12.04-.35,24.2.75,24.04l-3.48,1.41s-.08-.25-.23-.71a14.42626,14.42626,0,0,1-.55-2.03c-.05-.45-.1-.95-.16-1.49a12.89385,12.89385,0,0,1-.08-1.54V102.31C607.04,90.24,607.04,78.18,607.04,78.18Z" transform="translate(0.13 -0.63)" style="fill:#00aeef"/><path d="M611.55,126.35l3.48-1.42c-.05.02.25.4.6,1.15a6.80721,6.80721,0,0,0,2.59,2.18,6.29549,6.29549,0,0,0,2.2.54,10.51188,10.51188,0,0,0,1.73.06h18.73a4.28705,4.28705,0,0,0,.89-.04,6.34172,6.34172,0,0,0,4.27-1.97,6.88945,6.88945,0,0,0,1.58-2.98,10.84459,10.84459,0,0,1,.14-1.29h3.76s-.08.75-.22,2.06a10.50512,10.50512,0,0,1-2.51,4.78,10.11012,10.11012,0,0,1-6.83,3.15c-2.82.1-5.84.03-8.86.05h-8.86c-2.81.02-5.53.09-7.59-.95a10.56379,10.56379,0,0,1-4.13-3.49A17.62955,17.62955,0,0,1,611.55,126.35Z" transform="translate(0.13 -0.63)" style="fill:#52d6ff"/><path d="M608.07,127.76l3.48-1.41a20.033,20.033,0,0,0,.96,1.83,10.57178,10.57178,0,0,0,4.13,3.49c2.06,1.04,4.78.97,7.59.95h8.86c3.02-.02,6.04.05,8.86-.05a10.11018,10.11018,0,0,0,6.83-3.15,10.55306,10.55306,0,0,0,2.51-4.78c.14-1.31.22-2.06.22-2.06h3.76s-.05,1.04-.29,2.83a14.17741,14.17741,0,0,1-3.45,6.58,13.89035,13.89035,0,0,1-9.4,4.34,8.26973,8.26973,0,0,1-1.25.05H622.15a18.68562,18.68562,0,0,1-2.25-.08,13.67916,13.67916,0,0,1-4.84-1.22,14.21147,14.21147,0,0,1-5.66-4.79c-.44-.8-.78-1.42-1.01-1.85A3.31375,3.31375,0,0,1,608.07,127.76Z" transform="translate(0.13 -0.63)" style="fill:#00aeef"/><rect width="3.76" height="41.08" x="651.64" y="121.94" style="fill:#52d6ff"/><rect width="3.76" height="41.08" x="647.88" y="121.94" style="fill:#00aeef"/><rect width="3.76" height="41.08" x="651.64" y="163.02" style="fill:#52d6ff"/><rect width="3.76" height="41.08" x="647.88" y="163.02" style="fill:#00aeef"/><rect width="3.75" height="52.1" x="490.46" y="151.99" style="fill:#52d6ff"/><rect width="3.76" height="52.1" x="494.22" y="151.99" style="fill:#00aeef"/><path d="M494.09,152.62h-3.75V108.66a22.201,22.201,0,0,1,.34-4.13,13.51741,13.51741,0,0,1,1.25-3.32,11.41832,11.41832,0,0,1,1.73-2.55l2.85,2.45a7.58,7.58,0,0,0-1.25,1.85,10.13843,10.13843,0,0,0-.91,2.39,17.62218,17.62218,0,0,0-.25,3.31v17.91C494.09,139.6,494.09,152.62,494.09,152.62Z" transform="translate(0.13 -0.63)" style="fill:#52d6ff"/><path d="M497.84,152.62h-3.76V108.66a17.62214,17.62214,0,0,1,.25-3.31,9.41288,9.41288,0,0,1,.91-2.39,8.16326,8.16326,0,0,1,1.25-1.85l2.85,2.45a4.1348,4.1348,0,0,0-.77,1.14,6.266,6.266,0,0,0-.57,1.47,14.46685,14.46685,0,0,0-.16,2.5v43.95Z" transform="translate(0.13 -0.63)" style="fill:#00aeef"/><path d="M496.5,101.11l-2.85-2.45a11.37807,11.37807,0,0,1,2.25-2.1,13.46453,13.46453,0,0,1,7.59-2.63c4.92-.01,11.47-.02,18.03-.03h10.71c.4,0,.51-.06.77-.07l.67-.05.62-.21a3.59059,3.59059,0,0,0,1.15-.5,3.87768,3.87768,0,0,0,.96-.68,6.13358,6.13358,0,0,0,2.11-4.39l3.75.12a12.556,12.556,0,0,1-.33,2.2,9.71236,9.71236,0,0,1-3.08,4.91,10.80553,10.80553,0,0,1-7.75,2.42h-9.57c-6.51.01-13.02.03-17.91.03a9.73861,9.73861,0,0,0-5.49,1.9c-.54.46-1,.79-1.25,1.07C496.63,100.95,496.5,101.11,496.5,101.11Z" transform="translate(0.13 -0.63)" style="fill:#52d6ff"/><path d="M499.35,103.56l-2.85-2.45s.13-.16.37-.45a14.84809,14.84809,0,0,1,1.25-1.07,9.68093,9.68093,0,0,1,5.49-1.9c4.88-.01,11.4-.02,17.91-.03h9.57a10.7752,10.7752,0,0,0,7.75-2.42,9.64357,9.64357,0,0,0,3.08-4.91,12.56366,12.56366,0,0,0,.33-2.2l3.76.12s-.03.28-.07.8a10.05247,10.05247,0,0,1-.38,2.24,13.5305,13.5305,0,0,1-4.26,6.8,10.80292,10.80292,0,0,1-2.14,1.51,10.44517,10.44517,0,0,1-2.57,1.13l-1.41.42c-.49.06-.99.11-1.5.17-.47.04-1.1.11-1.45.11H521.52c-6.47.01-12.93.02-17.78.03a5.92024,5.92024,0,0,0-3.38,1.17c-.32.3-.63.48-.78.66A2.75135,2.75135,0,0,0,499.35,103.56Z" transform="translate(0.13 -0.63)" style="fill:#00aeef"/><path d="M542.25,88.12,538.5,88a20.04187,20.04187,0,0,0,.03-2.12V84.7a14.08758,14.08758,0,0,1,.06-1.58c.07-.68.12-1.41.25-2.17.21-.74.45-1.52.72-2.32a13.49762,13.49762,0,0,1,8.15-7.65,10.99727,10.99727,0,0,1,3.13-.67c.51-.04,1.16-.13,1.55-.11l1.65.15a13.45417,13.45417,0,0,1,6.19,2.4,13.83975,13.83975,0,0,1,5.7,11.27v16.49h-3.76V84.02a10.06856,10.06856,0,0,0-4.13-8.22,10.19615,10.19615,0,0,0-9.11-1.27,9.71364,9.71364,0,0,0-5.9,5.53,14.7498,14.7498,0,0,0-.74,5.81C542.29,87.31,542.25,88.12,542.25,88.12Z" transform="translate(0.13 -0.63)" style="fill:#52d6ff"/><path d="M546.01,88.24l-3.76-.12s.04-.81.03-2.24a14.7498,14.7498,0,0,1,.74-5.81,9.74046,9.74046,0,0,1,5.9-5.53,10.25828,10.25828,0,0,1,9.11,1.27,10.05519,10.05519,0,0,1,4.13,8.22v16.49H558.4V84.03a6.26694,6.26694,0,0,0-2.56-5.16,6.00807,6.00807,0,0,0-2.76-1.06l-.74-.09a5.42,5.42,0,0,0-.81.07,3.83766,3.83766,0,0,0-1.39.29,5.97505,5.97505,0,0,0-3.66,3.41,8.925,8.925,0,0,1-.32,1.03c-.03.34-.07.67-.1.97a8.20792,8.20792,0,0,0-.05,1.2v1.18A22.19319,22.19319,0,0,1,546.01,88.24Z" transform="translate(0.13 -0.63)" style="fill:#00aeef"/><rect width="3.76" height="52.1" x="562.31" y="99.89" style="fill:#52d6ff"/><rect width="3.76" height="52.1" x="558.55" y="99.89" style="fill:#00aeef"/><rect width="3.76" height="52.1" x="562.31" y="151.99" style="fill:#52d6ff"/><rect width="3.76" height="52.1" x="558.55" y="151.99" style="fill:#00aeef"/><polygon points="590.94 188.9 590.94 204.1 594.34 204.1 599.02 188.9 590.94 188.9" style="fill:#7dd3d1"/><polygon points="618.49 188.9 618.49 204.1 615.09 204.1 610.42 188.9 618.49 188.9" style="fill:#7dd3d1"/><rect width="37.91" height="4.68" x="556.48" y="167.26" style="fill:#abe7ff"/><path d="M548.21,189.53h-57.3a12.82039,12.82039,0,0,1-12.82-12.82v-8.28a12.82037,12.82037,0,0,1,12.82-12.82h57.3a12.82037,12.82037,0,0,1,12.82,12.82v8.28A12.8204,12.8204,0,0,1,548.21,189.53Z" transform="translate(0.13 -0.63)" style="fill:#abe7ff"/><path d="M598.02,86.72c-7.63,0-13.81,8.14-13.81,18.19v68.87c0,10.05,6.18,18.19,13.81,18.19h6.57V86.72Z" transform="translate(0.13 -0.63)" style="fill:#bdf2f0"/><path d="M611.15,86.72h-6.57V191.97h6.57c7.63,0,13.81-8.14,13.81-18.19V104.91C624.97,94.86,618.78,86.72,611.15,86.72Z" transform="translate(0.13 -0.63)" style="fill:#8ee0e0"/><polygon points="641.07 188.9 641.07 204.1 644.46 204.1 649.14 188.9 641.07 188.9" style="fill:#7dd3d1"/><polygon points="668.61 188.9 668.61 204.1 665.22 204.1 660.54 188.9 668.61 188.9" style="fill:#7dd3d1"/><path d="M648.14,86.72c-7.63,0-13.81,8.14-13.81,18.19v68.87c0,10.05,6.19,18.19,13.81,18.19h6.57V86.72Z" transform="translate(0.13 -0.63)" style="fill:#bdf2f0"/><path d="M661.28,86.72h-6.57V191.97h6.57c7.63,0,13.81-8.14,13.81-18.19V104.91C675.09,94.86,668.91,86.72,661.28,86.72Z" transform="translate(0.13 -0.63)" style="fill:#8ee0e0"/><rect width="3.45" height="57.89" x="590.94" y="103.91" style="fill:#fff"/><rect width="3.45" height="57.89" x="641.32" y="103.91" style="fill:#fff"/><path d="M568.57,166.87c0-6.62-7.07-11.99-15.79-11.99H493c-8.72,0-15.79,5.37-15.79,11.99v5.7h91.36Z" transform="translate(0.13 -0.63)" style="fill:#bdf2f0"/><path d="M568.57,178.27v-5.7H477.21v5.7c0,6.62,7.07,11.99,15.79,11.99h59.78C561.5,190.26,568.57,184.9,568.57,178.27Z" transform="translate(0.13 -0.63)" style="fill:#8ee0e0"/><rect width="50.25" height="3" x="502.98" y="159.99" style="fill:#fff"/><path d="M86.29,43v2.44H79.66V51.2h6.63v2.43H79.66v8.21H77.22V43Z" transform="translate(0.13 -0.63)" style="fill:#eff"/><path d="M94.19,55.81H91.96v6.03H89.52V43h5.35a6.47928,6.47928,0,0,1,3.84,1.87,6.43395,6.43395,0,0,1,0,9.07,5.2834,5.2834,0,0,1-1.98,1.46l4.18,6.44H97.95ZM91.96,45.45v7.91h2.23a3.95979,3.95979,0,0,0,2.79-6.76,3.79673,3.79673,0,0,0-2.79-1.15Z" transform="translate(0.13 -0.63)" style="fill:#eff"/><path d="M113.47,43v2.44h-7.71V51.2h7.71v2.43h-7.71v5.76h7.71v2.45H103.32V43Z" transform="translate(0.13 -0.63)" style="fill:#eff"/><path d="M121.5,52.17a8.25,8.25,0,0,1-3.24-1.91,4.1688,4.1688,0,0,1-1.24-3.08,4.4195,4.4195,0,0,1,7.53-3.12,5.24857,5.24857,0,0,1,1.22,2.25l-2.21.87a4.34837,4.34837,0,0,0-.73-1.41,1.975,1.975,0,0,0-3.37,1.4,1.87927,1.87927,0,0,0,.58,1.4,6.60108,6.60108,0,0,0,1.79,1.17A9.25137,9.25137,0,0,1,125.59,52a5.87607,5.87607,0,1,1-8.31,8.31,6.57648,6.57648,0,0,1-1.74-3.8l2.37-.86a4.82188,4.82188,0,0,0,1.1,2.96,3.31467,3.31467,0,0,0,2.44,1.01,3.45776,3.45776,0,0,0,2.44-5.9A7.47427,7.47427,0,0,0,121.5,52.17Z" transform="translate(0.13 -0.63)" style="fill:#eff"/><path d="M132.11,54.05v7.8h-2.44V43h2.44v8.61h5.82V43h2.44V61.84h-2.44v-7.8h-5.82Z" transform="translate(0.13 -0.63)" style="fill:#eff"/><path d="M155.04,43l6.11,10.56L167.24,43h2.23V61.84h-2.44V48.23l-5.88,10.18-5.9-10.18V61.84h-2.44V43Z" transform="translate(0.13 -0.63)" style="fill:#eff"/><path d="M176.25,43V61.84h-2.44V43Z" transform="translate(0.13 -0.63)" style="fill:#eff"/><path d="M180.03,61.84V43h2.44V59.39h6.74v2.45Z" transform="translate(0.13 -0.63)" style="fill:#eff"/><path d="M194.47,52.95v8.89h-2.44V43h2.44v5.94L198.92,43h3.09l-5.78,7.75,7.2,11.09h-2.96l-5.83-9.09Z" transform="translate(0.13 -0.63)" style="fill:#eff"/></svg>