<?xml version="1.0" encoding="utf-8"?>
<!-- Generator: Adobe Illustrator 24.1.1, SVG Export Plug-In . SVG Version: 6.00 Build 0)  -->
<svg version="1.1" id="Layer_1" xmlns="http://www.w3.org/2000/svg" xmlns:xlink="http://www.w3.org/1999/xlink" x="0px" y="0px"
	 viewBox="0 0 170 176" style="enable-background:new 0 0 170 176;" xml:space="preserve">
<style type="text/css">
	.st0{fill-rule:evenodd;clip-rule:evenodd;fill:#041C63;}
	.st1{fill-rule:evenodd;clip-rule:evenodd;fill:#6EE300;}
	.st2{fill-rule:evenodd;clip-rule:evenodd;fill:#00AAFF;}
</style>
<g>
	<path class="st0" d="M57.82,49.14l-5.88-3.34c-2.42-1.37-5.52-0.52-6.9,1.9l0,0c-1.37,2.42-0.52,5.52,1.9,6.9l3.1,1.76l9.97,5.66
		c2.42,1.37,3.27,4.48,1.9,6.9l0,0c-1.37,2.42-4.48,3.27-6.9,1.9l-6.31-3.58v0L39,61.72c-2.42-1.37-5.52-0.52-6.9,1.9l0,0
		c-1.37,2.42-0.52,5.52,1.9,6.9l14.72,8.36v0l21.62,12.28c2.42,1.37,3.27,4.48,1.9,6.9l0,0c-1.37,2.42-4.48,3.27-6.89,1.9
		L12.55,69.96c-2.42-1.37-5.52-0.52-6.9,1.9l0,0c-1.37,2.42-0.52,5.52,1.9,6.9l41.17,23.38v0l8.52,4.84c2.42,1.37,3.27,4.48,1.9,6.9
		l0,0c-1.37,2.42-4.48,3.27-6.9,1.9l-3.52-2v0L21.49,98.3c-2.42-1.37-5.52-0.52-6.9,1.9l0,0c-1.37,2.42-0.52,5.52,1.9,6.9
		l32.23,18.3v0l6.03,3.42c2.42,1.37,3.27,4.48,1.9,6.9l0,0c-1.37,2.42-4.48,3.27-6.89,1.9l0,0l-1.03-0.59l-11.19-6.35
		c-2.42-1.37-5.52-0.52-6.9,1.9l0,0c-1.37,2.42-0.52,5.52,1.9,6.9c17.99,10.22,35.88,20.24,53.9,30.38l45.41-11.76V65.62
		l-16.38-24.27V25.82H66.39v15.37L57.82,49.14L57.82,49.14z M23.33,122.61l-10.82-6.14c-2.42-1.37-5.52-0.52-6.9,1.9l0,0
		c-1.37,2.42-0.52,5.52,1.9,6.9l10.82,6.14c2.42,1.37,5.52,0.52,6.9-1.9l0,0C26.6,127.08,25.75,123.98,23.33,122.61L23.33,122.61z
		 M37.74,37.74l-10.82-6.14c-2.42-1.37-5.52-0.52-6.9,1.9l0,0c-1.37,2.42-0.52,5.52,1.9,6.9l10.82,6.14c2.42,1.37,5.52,0.52,6.9-1.9
		l0,0C41.02,42.21,40.16,39.11,37.74,37.74L37.74,37.74z M73.08,38.9h35.69v-6.39H73.08V38.9L73.08,38.9z M75.66,45.5l11.63,20.14
		l35.47-1.69L110.3,45.5H75.66L75.66,45.5z M89.4,73.2l35.84-2.75v82.52l-35.84,9.29V73.2L89.4,73.2z"/>
	<polygon class="st1" points="85.01,50.9 90.31,60.09 112.91,59.01 107.44,50.9 85.01,50.9 	"/>
	<path class="st1" d="M94.8,154.35c2.23-0.16,4.43-0.42,6.6-0.77l13.37-3.46c1.72-0.62,3.42-1.31,5.08-2.05V76.28L94.8,78.2V154.35
		L94.8,154.35z"/>
	<path class="st2" d="M89.4,5.48c-21.75,0-41.33,9.32-54.96,24.18l5.96,3.38c2.87,1.63,4.67,4.43,5.15,7.46
		c2.85-1.14,6.18-1.03,9.05,0.6l2.44,1.38l3.94-3.66V20.42h59.87v19.27l16.38,24.27v73.2c16.32-13.67,26.71-34.2,26.71-57.16
		C163.94,38.85,130.57,5.48,89.4,5.48L89.4,5.48z"/>
</g>
</svg>
