<svg xmlns="http://www.w3.org/2000/svg" id="e4efdc2f-150c-4196-a68d-a8467dcc9971" width="1012.293" height="636.613" data-name="Layer 1" viewBox="0 0 1012.293 636.613"><title>fill_forms</title><path fill="#a0616a" d="M472.64653,398.128s83,4,88,33-97,3-97,3Z" transform="translate(-93.85347 -131.6937)"/><path fill="#575a89" d="M341.64653,306.128s14,4,25,28,33,46,33,46l89,17-15,45-85-11-53-30Z" transform="translate(-93.85347 -131.6937)"/><path d="M341.64653,306.128s14,4,25,28,33,46,33,46l89,17-15,45-85-11-53-30Z" opacity=".1" transform="translate(-93.85347 -131.6937)"/><rect width="105" height="2" x="824.293" y="92.934" fill="#3f3d56"/><rect width="333" height="2" x="409.293" y="92.934" fill="#3f3d56"/><rect width="789" height="301" x="30.293" y="333.934" fill="#3f3d56"/><polygon fill="#a0616a" points="115.793 128.434 124.793 185.434 186.793 188.434 179.793 104.434 115.793 128.434"/><path fill="#2f2e41" d="M144.14653,640.628l-3,126h94l14-50,11,50h98s2-144-9-145S144.14653,640.628,144.14653,640.628Z" transform="translate(-93.85347 -131.6937)"/><circle cx="135.793" cy="89.434" r="54" fill="#a0616a"/><path fill="#575a89" d="M138.64653,646.128l28-138-37-183,85.21434-31.97582,41.78566-5.02418,21.00654-3.92147,14.99346,3.92147s60,15,63,26-12,101-12,101l-14,74,31,133s-129,44-220,24Z" transform="translate(-93.85347 -131.6937)"/><polygon points="82.293 243.934 82.293 280.934 200.285 281.095 88.293 268.934 82.293 243.934" opacity=".1"/><polygon points="72.159 346.12 220.293 324.934 72.159 366.89 72.159 346.12" opacity=".1"/><polygon points="307.293 248.934 291.412 306.159 318.293 250.822 307.293 248.934" opacity=".1"/><path fill="#2f2e41" d="M274.08747,166.97162l9.93007-3.97545s-20.76282-22.85871-49.65048-20.8709l8.12483-8.94481s-19.86015-7.95077-37.9148,12.92013c-9.491,10.97136-20.47216,23.86767-27.31776,38.39517H166.62491l4.4384,9.77288-15.53444,9.77288,15.94458-1.75541a54.612,54.612,0,0,0-.43268,16.21013,20.97371,20.97371,0,0,0,7.68035,13.72061h0s12.3151-25.49107,12.3151-29.46652v9.93858s9.93007-8.94467,9.93007-14.90777l5.41635,6.957,2.70817-10.93248,33.40108,10.93248-5.41635-8.94468,20.76283,2.98155-8.12483-10.93248s23.471,12.92013,24.37393,23.85261c.90262,10.93232,7.77269,21.29141,7.77269,21.29141S300.26671,181.8794,274.08747,166.97162Z" transform="translate(-93.85347 -131.6937)"/><rect width="384" height="401" x="233.293" y="234.934" fill="#d0cde1"/><rect width="284" height="40" x="273.293" y="322.934" fill="#0af"/><rect width="185.994" height="20" x="322.116" y="428.934" fill="#0af"/><rect width="185.994" height="20" x="322.475" y="463.934" fill="#0af"/><rect width="92.997" height="20" x="322.834" y="498.934" fill="#0af"/><rect width="43" height="20" x="519.293" y="599.934" fill="#0af"/><path fill="#a0616a" d="M299.64653,417.128s87-13,100,6-92,29-92,29Z" transform="translate(-93.85347 -131.6937)"/><path fill="#575a89" d="M139.64653,324.128h-6.26587a10.21521,10.21521,0,0,0-6.9558,2.707c-5.94794,5.52277-18.52459,19.7749-23.77833,45.293-7,34-19,100,8,105s204-19,204-19l-13-46-128,1s2-22-2-36S139.64653,324.128,139.64653,324.128Z" transform="translate(-93.85347 -131.6937)"/><circle cx="409.293" cy="93.934" r="41" fill="#d0cde1"/><circle cx="596.293" cy="93.934" r="41" fill="#3f3d56"/><path fill="#3f3d56" d="M877.14653,267.628a42,42,0,1,1,42-42A42.0475,42.0475,0,0,1,877.14653,267.628Zm0-82a40,40,0,1,0,40,40A40.04551,40.04551,0,0,0,877.14653,185.628Z" transform="translate(-93.85347 -131.6937)"/><path fill="#3f3d56" d="M1064.14653,267.628a42,42,0,1,1,42-42A42.0475,42.0475,0,0,1,1064.14653,267.628Zm0-82a40,40,0,1,0,40,40A40.04551,40.04551,0,0,0,1064.14653,185.628Z" transform="translate(-93.85347 -131.6937)"/><polygon fill="#3f3d56" points="403.641 111.377 385.873 87.688 392.273 82.887 404.506 99.197 460.745 42.959 466.401 48.615 403.641 111.377"/><rect width="816.595" height="2.782" x="16.496" y="633.831" fill="#3f3d56"/></svg>